<?xml version="1.0"?>
<svg width="80" height="80" xmlns="http://www.w3.org/2000/svg" xmlns:svg="http://www.w3.org/2000/svg">
 <defs>
  <clipPath id="clip0_1505_47595">
   <rect fill="white" height="500" id="svg_1" width="560.11"/>
  </clipPath>
 </defs>
 <g class="layer">
  <title>Layer 1</title>
  <g clip-path="url(#clip0_1505_47595)" id="svg_2">
   <path d="m12.49,63.54c0.7,0 1.75,0.34 2.41,1.07c0.07,0.07 0.15,0.12 0.25,0.11c0.09,-0.01 0.18,-0.05 0.24,-0.13l0.62,-0.81c0.12,-0.16 0.11,-0.41 -0.03,-0.55c-1.09,-1.13 -2.56,-1.53 -3.49,-1.53c-1.64,0 -3.41,0.95 -3.41,3.04c0,1.94 1.73,2.52 3.27,3.02c0.82,0.26 2.06,0.66 2.06,1.24c0,0.94 -1.18,1.19 -1.81,1.19c-0.63,0 -1.64,-0.28 -2.39,-1.05c-0.13,-0.14 -0.34,-0.13 -0.46,0.01l-0.65,0.73c-0.07,0.07 -0.1,0.17 -0.1,0.28c0,0.11 0.04,0.21 0.1,0.28c0.98,1.09 2.46,1.57 3.5,1.57c1.69,0 3.41,-1.04 3.41,-3.02c0,-1.98 -1.75,-2.56 -3.29,-3.06l-0.04,-0.01c-0.95,-0.3 -2.02,-0.65 -2.02,-1.19c0,-0.95 1.15,-1.2 1.82,-1.2l0,0z" fill="#FF6002" id="svg_3"/>
   <path d="m27.07,68.85c-0.07,-0.07 -0.16,-0.12 -0.25,-0.11c-0.09,0.01 -0.18,0.05 -0.24,0.13c-0.6,0.8 -1.42,1.28 -2.18,1.28c-1.4,0 -2.54,-1.27 -2.54,-2.84l0,-0.92c0,-1.55 1.14,-2.82 2.54,-2.82c0.76,0 1.58,0.48 2.18,1.27c0.06,0.08 0.15,0.13 0.24,0.13c0.09,0.01 0.18,-0.03 0.25,-0.11l0.68,-0.75c0.13,-0.14 0.14,-0.38 0.02,-0.54c-0.91,-1.19 -2.17,-1.9 -3.37,-1.9c-2.29,0 -4.16,2.11 -4.16,4.71l0,0.92c0,2.6 1.87,4.71 4.16,4.71c1.2,0 2.46,-0.7 3.37,-1.87c0.12,-0.16 0.11,-0.4 -0.02,-0.54l-0.68,-0.75l0,0z" fill="#FF6002" id="svg_4"/>
   <path d="m35.52,61.83c-0.67,0 -1.34,0.24 -1.94,0.67l0,-4.3c0,-0.22 -0.15,-0.39 -0.34,-0.39l-0.94,0c-0.19,0 -0.34,0.18 -0.34,0.39l0,13.42c0,0.22 0.15,0.39 0.34,0.39l0.94,0c0.19,0 0.34,-0.17 0.34,-0.39l0.02,-5.8c0,-1.17 0.86,-2.12 1.92,-2.12c1.06,0 1.94,0.95 1.94,2.12l0,5.8c0,0.22 0.15,0.39 0.34,0.39l0.93,0c0.19,0 0.34,-0.18 0.34,-0.39l0,-5.8c0,-2.17 -1.62,-4 -3.54,-4l0,0z" fill="#FF6002" id="svg_5"/>
   <path d="m70.87,71.14l-0.29,-0.99c-0.03,-0.1 -0.09,-0.18 -0.18,-0.23c-0.08,-0.04 -0.18,-0.05 -0.26,-0.01c-0.37,0.16 -0.68,0.24 -0.95,0.24c-0.72,0 -1.03,-0.37 -1.03,-1.24l0,-10.7c0,-0.22 -0.15,-0.39 -0.34,-0.39l-0.94,0c-0.19,0 -0.34,0.18 -0.34,0.39l0,10.7c0,1.98 0.96,3.11 2.65,3.11c0.4,0 0.87,-0.17 1.42,-0.36l0.05,-0.02c0.09,-0.03 0.16,-0.1 0.2,-0.2c0.04,-0.09 0.05,-0.2 0.02,-0.3l0,0z" fill="#FF6002" id="svg_6"/>
   <path d="m47.64,61.69c1.19,0 2.31,0.54 3.15,1.51l2.01,2.33l2.01,-2.33c0.84,-0.97 1.96,-1.51 3.15,-1.51c0.2,0 0.36,0.19 0.36,0.41l0,1.03c0,0.23 -0.16,0.41 -0.36,0.41c-0.76,0 -1.48,0.34 -2.01,0.96l-2.01,2.32l2.01,2.33c0.54,0.62 1.25,0.96 2.01,0.96c1.57,0 2.85,-1.47 2.85,-3.29c0,-0.23 0.16,-0.41 0.36,-0.41l0.89,0c0.2,0 0.36,0.19 0.36,0.41c0,2.84 -2,5.15 -4.46,5.15c-1.19,0 -2.31,-0.54 -3.15,-1.51l-2.01,-2.32l-2.01,2.32c-0.84,0.97 -1.96,1.51 -3.15,1.51c-2.46,0 -4.46,-2.31 -4.46,-5.15c0,-2.84 2,-5.15 4.46,-5.15l0,0zm0,8.43c0.76,0 1.48,-0.34 2.01,-0.96l2.01,-2.33l-2.01,-2.33c-0.54,-0.62 -1.25,-0.96 -2.01,-0.96c-1.57,0 -2.85,1.47 -2.85,3.29c0,1.81 1.28,3.29 2.85,3.29l0,0z" fill="#FF6002" id="svg_7"/>
   <path clip-rule="evenodd" d="m12.92,49.52c0.08,-0.17 0.05,-0.31 -0.12,-0.43l-0.28,-0.24c-0.13,-0.11 -0.26,-0.07 -0.37,0.11c-0.02,0.05 -0.06,0.12 -0.12,0.21c-0.05,0.09 -0.12,0.18 -0.2,0.28c-0.16,0.21 -0.41,0.32 -0.75,0.33c-0.35,-0.01 -0.62,-0.15 -0.81,-0.42c-0.19,-0.27 -0.28,-0.57 -0.28,-0.91l0,-2.31c0,-0.35 0.09,-0.66 0.28,-0.92c0.19,-0.26 0.46,-0.4 0.81,-0.41c0.17,0 0.32,0.03 0.45,0.09c0.12,0.07 0.23,0.16 0.31,0.25c0.08,0.08 0.15,0.18 0.2,0.28c0.05,0.08 0.08,0.16 0.1,0.24c0.1,0.16 0.23,0.18 0.37,0.07l0.3,-0.25c0.08,-0.07 0.12,-0.14 0.13,-0.24c0,-0.07 -0.02,-0.14 -0.05,-0.2c-0.05,-0.17 -0.2,-0.41 -0.47,-0.74c-0.13,-0.14 -0.31,-0.27 -0.53,-0.37c-0.23,-0.1 -0.49,-0.15 -0.8,-0.15c-0.61,0.01 -1.1,0.24 -1.47,0.7c-0.38,0.46 -0.57,1.01 -0.57,1.66l0,2.3c0,0.64 0.19,1.19 0.57,1.64c0.37,0.46 0.86,0.7 1.47,0.71c0.3,-0.01 0.57,-0.07 0.79,-0.17c0.22,-0.1 0.4,-0.22 0.54,-0.36c0.15,-0.14 0.26,-0.29 0.35,-0.44c0.07,-0.13 0.12,-0.24 0.15,-0.32l0,0zm14.64,-3.22c-0.01,-0.65 -0.19,-1.2 -0.56,-1.66c-0.36,-0.46 -0.86,-0.69 -1.49,-0.7c-0.61,0.01 -1.1,0.24 -1.47,0.7c-0.38,0.46 -0.57,1.01 -0.57,1.66l0,2.3c0,0.64 0.19,1.19 0.57,1.64c0.37,0.46 0.86,0.7 1.47,0.71c0.52,-0.01 0.94,-0.15 1.26,-0.42c0.16,-0.14 0.3,-0.27 0.41,-0.41c0.1,-0.14 0.2,-0.29 0.27,-0.43c0.04,-0.07 0.06,-0.14 0.06,-0.23c-0.01,-0.08 -0.05,-0.16 -0.13,-0.22l-0.27,-0.23c-0.06,-0.06 -0.12,-0.08 -0.18,-0.07c-0.08,0.01 -0.14,0.05 -0.19,0.13c-0.1,0.18 -0.25,0.36 -0.45,0.55c-0.21,0.19 -0.47,0.3 -0.79,0.31c-0.35,-0.01 -0.62,-0.15 -0.81,-0.42c-0.19,-0.27 -0.28,-0.57 -0.28,-0.91l0,-0.35c0,-0.22 0.09,-0.32 0.27,-0.32l2.32,0c0.36,0 0.54,-0.21 0.55,-0.64l0,-0.99l0,0zm-0.95,0.35c0,0.21 -0.09,0.32 -0.27,0.32l-1.64,0c-0.18,0 -0.27,-0.11 -0.27,-0.32l0,-0.35c0,-0.36 0.1,-0.66 0.28,-0.93c0.19,-0.26 0.46,-0.4 0.81,-0.41c0.35,0.01 0.62,0.14 0.81,0.41c0.19,0.26 0.29,0.57 0.29,0.93l0,0.35l0,0zm15.38,1.97c-0.01,-0.68 -0.21,-1.18 -0.61,-1.51c-0.39,-0.32 -0.87,-0.49 -1.44,-0.51c-0.02,0.01 -0.19,-0.04 -0.49,-0.15c-0.14,-0.06 -0.25,-0.15 -0.33,-0.28c-0.11,-0.11 -0.16,-0.27 -0.16,-0.48c0,-0.19 0.07,-0.38 0.21,-0.59c0.14,-0.2 0.4,-0.31 0.78,-0.32c0.31,0 0.58,0.14 0.83,0.41c0.13,0.13 0.25,0.14 0.39,0.04l0.3,-0.25c0.15,-0.12 0.16,-0.26 0.04,-0.43c-0.17,-0.22 -0.37,-0.41 -0.62,-0.56c-0.26,-0.14 -0.57,-0.21 -0.93,-0.22c-0.63,0.01 -1.1,0.21 -1.42,0.61c-0.32,0.39 -0.48,0.83 -0.48,1.32c0.02,1.15 0.65,1.79 1.91,1.92c0.03,-0.01 0.21,0.03 0.55,0.11c0.14,0.05 0.27,0.15 0.39,0.29c0.1,0.15 0.16,0.34 0.16,0.59c0,0.28 -0.08,0.54 -0.25,0.77c-0.17,0.24 -0.45,0.37 -0.84,0.38c-0.28,0 -0.53,-0.1 -0.74,-0.29c-0.21,-0.18 -0.38,-0.38 -0.52,-0.6c-0.09,-0.16 -0.21,-0.18 -0.36,-0.09l-0.28,0.24c-0.14,0.13 -0.17,0.28 -0.08,0.45c0.15,0.29 0.39,0.58 0.71,0.86c0.32,0.29 0.75,0.44 1.28,0.46c0.65,-0.01 1.15,-0.22 1.51,-0.64c0.35,-0.41 0.53,-0.92 0.53,-1.54l0,0zm14.56,-2.47c-0.01,-0.65 -0.19,-1.2 -0.56,-1.66c-0.36,-0.46 -0.86,-0.69 -1.48,-0.7c-0.61,0.01 -1.1,0.24 -1.47,0.7c-0.38,0.46 -0.57,1.01 -0.57,1.66l0,4.19c0,0.21 0.09,0.31 0.27,0.31l0.41,0c0.18,0 0.27,-0.1 0.27,-0.31l0,-2.25c0,-0.22 0.09,-0.32 0.27,-0.32l1.64,0c0.18,0 0.27,0.11 0.27,0.32l0,2.25c0,0.21 0.09,0.31 0.27,0.31l0.41,0c0.18,0 0.27,-0.1 0.27,-0.31l0,-4.19l0,0zm-0.95,0.35c0,0.21 -0.09,0.32 -0.27,0.32l-1.64,0c-0.18,0 -0.27,-0.11 -0.27,-0.32l0,-0.35c0,-0.36 0.1,-0.66 0.28,-0.93c0.19,-0.26 0.46,-0.4 0.81,-0.41c0.35,0.01 0.62,0.15 0.81,0.41c0.19,0.26 0.28,0.57 0.28,0.93l0,0.35l0,0zm15.5,2.6c0,-0.44 -0.06,-0.8 -0.17,-1.06c-0.12,-0.25 -0.25,-0.44 -0.41,-0.56c-0.1,-0.11 -0.1,-0.21 0,-0.31c0.1,-0.07 0.22,-0.2 0.36,-0.41c0.14,-0.2 0.21,-0.5 0.22,-0.9c-0.01,-0.66 -0.2,-1.17 -0.57,-1.52c-0.39,-0.36 -0.88,-0.54 -1.47,-0.54c-0.61,0.01 -1.1,0.24 -1.47,0.7c-0.38,0.46 -0.57,1.01 -0.57,1.66l0,4.19c0,0.21 0.09,0.31 0.27,0.31l0.41,0c0.18,0 0.27,-0.1 0.27,-0.31l0,-2.25c0,-0.22 0.09,-0.32 0.27,-0.32l0.82,0c0.35,0.01 0.62,0.14 0.81,0.41c0.19,0.26 0.28,0.57 0.28,0.92l0,1.24c0,0.21 0.09,0.31 0.27,0.31l0.41,0c0.18,0 0.27,-0.1 0.27,-0.31l0,-1.24l0,0zm-0.95,-3.25c-0.02,0.4 -0.16,0.66 -0.42,0.78c-0.26,0.14 -0.48,0.2 -0.67,0.19l-0.82,0c-0.18,0 -0.27,-0.11 -0.27,-0.32l0,-0.35c0,-0.36 0.1,-0.66 0.29,-0.93c0.19,-0.26 0.46,-0.4 0.81,-0.41c0.31,0 0.56,0.08 0.77,0.25c0.21,0.17 0.31,0.44 0.32,0.79l0,0z" fill="#FF6002" fill-rule="evenodd" id="svg_8"/>
   <path clip-rule="evenodd" d="m33.59,8c-14,1.39 -24.56,7.23 -24.56,14.17c0,7.98 13.94,14.49 31.02,14.49c17.09,0 31.02,-6.51 31.02,-14.49c0,-6.94 -10.56,-12.78 -24.56,-14.17l0,0.67c7.25,1 12.45,4.79 12.45,7.87c0,3.95 -8.49,7.16 -18.91,7.16c-10.41,0 -18.91,-3.22 -18.91,-7.16c0,-3.09 5.2,-6.69 12.45,-7.7l0,-0.84l0,0z" fill="#FF6002" fill-rule="evenodd" id="svg_9"/>
   <path clip-rule="evenodd" d="m37.33,9.72c-5.8,0.51 -10.18,2.66 -10.18,5.22c0,2.94 5.78,5.34 12.86,5.34c7.08,0 12.86,-2.4 12.86,-5.34c0,-2.56 -4.38,-4.71 -10.18,-5.22l0,0.67c3,0.37 5.16,1.34 5.16,2.48c0,1.45 -3.52,2.64 -7.84,2.64c-4.32,0 -7.84,-1.19 -7.84,-2.64c0,-1.14 2.16,-2.11 5.16,-2.48l0,-0.67z" fill="#FF6002" fill-rule="evenodd" id="svg_10"/>
   <path clip-rule="evenodd" d="m18.62,50.39c0,-0.14 -0.06,-0.21 -0.17,-0.22l-0.26,0c-0.11,0.01 -0.17,0.08 -0.17,0.22l0,0.2c0,0.14 0.06,0.21 0.17,0.21l0.26,0c0.11,-0.01 0.17,-0.08 0.17,-0.21l0,-0.2z" fill="#FF6002" fill-rule="evenodd" id="svg_11"/>
   <path clip-rule="evenodd" d="m33.14,50.38c0,-0.14 -0.06,-0.21 -0.17,-0.22l-0.26,0c-0.11,0.01 -0.17,0.08 -0.17,0.22l0,0.2c0,0.14 0.06,0.21 0.17,0.21l0.26,0c0.11,-0.01 0.17,-0.08 0.17,-0.21l0,-0.2z" fill="#FF6002" fill-rule="evenodd" id="svg_12"/>
   <path clip-rule="evenodd" d="m47.56,50.4c0,-0.14 -0.06,-0.21 -0.17,-0.22l-0.26,0c-0.11,0.01 -0.17,0.08 -0.17,0.22l0,0.2c0,0.14 0.06,0.21 0.17,0.21l0.26,0c0.11,-0.01 0.17,-0.08 0.17,-0.21l0,-0.2z" fill="#FF6002" fill-rule="evenodd" id="svg_13"/>
   <path clip-rule="evenodd" d="m61.99,50.38c0,-0.14 -0.06,-0.21 -0.17,-0.22l-0.26,0c-0.12,0.01 -0.17,0.08 -0.17,0.22l0,0.2c0,0.14 0.06,0.21 0.17,0.21l0.26,0c0.11,-0.01 0.17,-0.08 0.17,-0.21l0,-0.2z" fill="#FF6002" fill-rule="evenodd" id="svg_14"/>
  </g>
 </g>
</svg>